<?xml version="1.0" standalone="no"?>
<!DOCTYPE svg PUBLIC "-//W3C//DTD SVG 20010904//EN"
 "http://www.w3.org/TR/2001/REC-SVG-20010904/DTD/svg10.dtd">
<svg version="1.0" xmlns="http://www.w3.org/2000/svg"
 width="1180.000000pt" height="942.000000pt" viewBox="0 0 1180.000000 942.000000"
 preserveAspectRatio="xMidYMid meet">
<metadata>
Created by potrace 1.16, written by Peter Selinger 2001-2019
</metadata>
<g transform="translate(0.000000,942.000000) scale(0.100000,-0.100000)"
fill="#000000" stroke="none">
<path d="M4370 8540 c371 -375 839 -849 1040 -1052 l365 -371 1036 1049 c570
577 1035 1050 1034 1052 -1 2 -303 -110 -670 -248 -368 -137 -670 -250 -672
-250 -2 0 -2 4 1 9 9 14 -162 88 -278 120 -177 50 -303 64 -516 58 -201 -6
-311 -24 -472 -77 -131 -44 -162 -61 -168 -92 l-5 -26 -661 248 c-364 136
-672 251 -685 255 -13 4 280 -299 651 -675z m537 139 c472 -177 863 -322 868
-322 6 0 396 145 869 322 472 177 860 321 861 319 2 -2 -387 -398 -863 -880
l-866 -877 -575 582 c-316 320 -708 716 -870 880 -163 163 -293 297 -289 297
4 0 393 -145 865 -321z"/>
<path d="M4415 8752 c6 -6 314 -220 685 -475 l674 -465 111 77 c468 323 1243
866 1241 868 -2 2 -304 -117 -672 -263 -368 -147 -673 -267 -679 -267 -5 0
-309 119 -675 263 -762 301 -698 276 -685 262z"/>
<path d="M4294 8404 c-544 -340 -947 -913 -1088 -1545 -43 -198 -57 -316 -63
-546 -5 -198 2 -366 24 -518 l5 -40 -36 53 c-20 28 -41 52 -46 52 -16 0 -230
-109 -230 -118 0 -4 25 -49 55 -101 30 -51 55 -96 55 -100 0 -3 -22 -25 -50
-49 -27 -23 -64 -64 -81 -90 -18 -26 -34 -49 -36 -51 -2 -3 -48 6 -104 19 -76
18 -102 21 -108 12 -4 -7 -20 -66 -36 -133 -23 -95 -26 -122 -16 -128 7 -5 51
-19 97 -32 l84 -23 0 -97 c0 -53 3 -110 6 -126 6 -29 2 -32 -85 -87 l-91 -58
41 -76 c113 -207 110 -202 127 -192 9 5 48 29 86 54 l70 44 60 -55 c34 -30 73
-62 89 -71 l27 -16 0 -127 0 -127 113 -26 c61 -14 117 -26 122 -26 6 0 28 48
51 108 l41 107 94 7 c52 4 109 11 128 17 19 6 36 9 38 7 2 -2 28 -45 58 -96
60 -101 61 -97 -17 -74 -13 4 -19 -4 -27 -33 -21 -79 -51 -202 -51 -206 0 -2
37 -15 81 -28 45 -13 83 -28 84 -34 2 -5 5 -55 8 -110 l4 -100 -78 -49 -79
-49 47 -86 c41 -77 82 -150 89 -160 2 -2 37 18 79 44 l76 48 37 -35 c20 -19
54 -47 74 -62 l37 -28 3 -111 3 -112 103 -23 c57 -13 106 -22 108 -19 3 3 20
45 39 94 l33 88 73 6 c41 4 91 11 112 17 42 12 32 22 107 -103 23 -38 43 -71
45 -73 5 -5 217 132 221 143 3 7 -13 45 -35 87 l-41 74 36 35 c20 19 47 55 60
82 27 53 29 53 124 32 100 -22 92 -30 118 106 12 67 20 124 17 128 -4 3 -41
15 -82 26 l-76 20 -4 72 c-2 39 -10 92 -17 118 -13 42 -13 46 4 55 10 6 21 10
24 10 3 0 6 -56 6 -123 l0 -124 98 -22 c173 -38 302 -52 543 -58 252 -6 419 4
604 37 61 10 126 21 145 24 l35 6 -35 -11 c-19 -5 -51 -14 -71 -20 l-36 -9 24
-122 c13 -67 26 -124 28 -126 3 -3 42 3 87 12 46 9 88 16 94 16 6 0 19 -18 29
-40 10 -22 36 -59 57 -82 l40 -43 -38 -75 c-21 -41 -39 -78 -39 -82 0 -10 218
-147 226 -142 4 2 28 39 53 82 25 42 49 82 54 89 5 9 22 8 67 -3 33 -7 83 -14
111 -14 l52 0 32 -91 c18 -50 38 -93 45 -95 6 -3 56 6 110 19 l100 24 3 117
c1 64 7 116 12 116 5 0 36 25 68 55 33 30 62 55 66 55 3 0 38 -20 78 -45 39
-24 75 -42 79 -39 14 8 130 234 125 243 -3 5 -40 30 -81 56 -41 25 -72 51 -69
57 4 5 9 53 13 106 l6 97 81 24 81 23 -31 124 -30 123 -29 -6 -28 -6 47 79
c65 109 59 105 124 88 30 -8 86 -14 126 -14 l71 0 42 -110 c28 -73 47 -110 57
-110 9 0 50 9 92 19 43 10 89 22 105 25 l27 6 0 125 0 124 33 22 c17 13 57 47
88 76 l55 52 89 -54 c49 -30 90 -53 91 -52 9 11 144 269 144 274 0 5 -41 33
-90 63 -66 40 -89 59 -84 70 3 8 9 65 11 126 l6 112 90 26 c49 14 91 27 94 29
9 9 -62 267 -74 267 -6 0 -49 -9 -95 -20 -46 -11 -88 -20 -93 -20 -6 0 -30 27
-54 60 -36 50 -75 88 -123 121 -5 3 18 52 52 109 33 56 59 104 58 105 -8 7
-229 115 -236 115 -4 0 -15 -12 -25 -27 l-18 -28 5 40 c15 113 27 385 21 495
-31 612 -210 1102 -562 1540 -171 213 -461 463 -649 558 l-42 21 -108 -117
c-60 -65 -117 -127 -127 -139 -18 -21 -18 -22 56 -71 229 -155 466 -387 628
-617 263 -372 406 -888 370 -1331 -7 -76 -13 -140 -15 -142 -2 -1 23 -67 55
-145 l58 -142 135 -3 136 -3 -26 -39 c-15 -22 -27 -40 -28 -40 0 0 -23 7 -50
15 -27 8 -81 15 -120 15 l-71 0 -44 105 -44 105 -36 -6 c-20 -3 -67 -12 -104
-20 -38 -8 -70 -14 -73 -14 -2 0 -4 -56 -4 -125 l0 -125 -42 -26 c-24 -14 -63
-46 -88 -70 l-45 -44 -100 40 c-55 22 -104 39 -110 39 -8 1 -79 -146 -113
-229 -2 -5 33 -30 78 -56 90 -54 83 -38 59 -149 -4 -22 -8 -72 -9 -111 l0 -70
-95 -23 c-52 -13 -95 -28 -95 -34 0 -7 12 -71 26 -143 l26 -130 92 18 c122 23
133 23 140 -6 3 -13 26 -51 50 -84 l45 -60 -47 23 c-26 13 -66 33 -88 44 l-42
20 -53 -77 c-28 -42 -55 -81 -59 -85 -4 -4 -33 -1 -66 8 -32 9 -79 15 -102 13
l-44 -2 -37 87 c-20 47 -39 88 -41 91 -3 2 -48 -4 -100 -15 -52 -10 -96 -19
-97 -19 -2 0 -3 -49 -3 -110 0 -109 0 -110 -27 -127 -16 -9 -47 -35 -71 -57
l-43 -41 -77 28 c-125 47 -113 50 -157 -47 -21 -47 -40 -86 -43 -86 -3 0 -19
9 -38 20 l-33 21 -83 -21 c-155 -40 -330 -60 -523 -60 -184 0 -255 7 -406 36
-86 17 -87 17 -121 -4 -20 -12 -40 -22 -45 -22 -6 0 -30 45 -54 100 -24 55
-49 100 -56 100 -7 0 -51 -15 -97 -34 l-84 -34 -34 35 c-18 19 -53 46 -77 60
l-43 26 4 109 c2 59 3 108 2 108 -1 0 -46 9 -99 20 -54 11 -99 19 -100 18 -1
-2 -19 -44 -39 -93 -37 -90 -37 -91 -70 -87 -31 4 -124 -10 -157 -23 -13 -5
-31 14 -75 77 -31 46 -59 84 -60 86 -1 2 -30 -11 -63 -28 l-62 -31 29 40 c16
22 35 54 42 71 15 36 22 36 143 11 63 -13 90 -15 92 -7 3 6 14 63 25 126 12
63 23 122 26 131 3 12 -16 20 -89 38 l-94 22 -6 87 c-4 48 -13 110 -22 137 -8
28 -15 51 -15 51 0 1 34 23 75 49 41 25 77 51 81 56 6 11 -94 239 -105 239 -3
0 -51 -18 -105 -39 l-99 -39 -64 55 c-36 30 -76 59 -89 65 -24 11 -24 14 -24
138 l0 127 -107 21 c-58 12 -109 19 -112 16 -3 -3 -24 -49 -47 -102 l-40 -97
-90 -6 c-49 -4 -104 -12 -122 -19 -18 -7 -34 -11 -36 -9 -20 27 -46 68 -46 73
0 3 66 6 148 6 l147 0 58 143 58 144 -10 84 c-14 105 -14 297 -1 414 45 402
201 777 460 1106 128 163 361 376 541 496 l69 46 -48 51 c-153 168 -208 226
-213 226 -3 0 -46 -25 -95 -56z m-584 -2710 l0 -123 53 -24 c30 -14 77 -49
111 -84 l60 -60 99 39 c55 21 100 37 101 36 1 -2 14 -29 29 -61 15 -31 27 -61
27 -66 0 -5 -30 -27 -67 -50 -38 -22 -74 -45 -82 -50 -12 -8 -10 -18 9 -63 19
-43 24 -75 28 -174 l4 -121 78 -18 c43 -10 84 -21 90 -25 9 -6 9 -24 -1 -79
-7 -40 -16 -74 -20 -76 -4 -3 -51 4 -104 15 -100 21 -115 20 -115 -6 0 -51
-91 -176 -154 -211 -17 -9 -15 -16 28 -95 25 -47 46 -90 46 -96 0 -11 -122
-92 -139 -92 -5 0 -35 45 -67 100 -50 85 -62 99 -79 94 -121 -38 -164 -45
-235 -40 l-75 6 -39 -105 c-22 -58 -42 -108 -46 -110 -3 -2 -34 3 -68 12 l-62
15 0 122 0 121 -45 24 c-25 13 -76 55 -114 94 l-70 70 -83 -51 -82 -50 -44 79
c-24 43 -41 83 -38 87 3 5 44 32 90 61 l86 52 -18 32 c-13 26 -17 58 -18 161
l0 129 -80 24 c-43 12 -84 25 -91 27 -8 4 -9 15 -3 38 5 18 14 52 19 74 l11
42 102 -24 c55 -14 102 -23 103 -22 1 2 11 23 22 48 27 59 82 121 143 161 28
18 50 34 50 37 0 2 -25 46 -55 97 -30 52 -55 96 -55 99 0 3 27 20 61 36 70 36
56 45 140 -82 28 -43 56 -78 61 -78 5 0 22 7 37 14 49 26 153 40 210 29 l50
-10 30 71 c16 39 37 87 45 107 l15 36 55 -10 56 -10 0 -123z m4281 41 l43
-105 75 6 c65 5 87 3 151 -19 41 -14 78 -23 81 -21 4 2 34 44 68 94 34 49 64
90 67 90 2 0 32 -14 65 -30 50 -26 58 -33 50 -48 -5 -9 -30 -52 -55 -95 -25
-43 -46 -82 -46 -86 0 -5 15 -18 33 -30 53 -33 135 -123 157 -173 12 -27 24
-48 28 -48 4 0 50 11 102 25 52 13 95 23 96 22 3 -5 34 -137 34 -147 0 -5 -5
-10 -11 -10 -6 0 -48 -11 -93 -25 l-81 -25 3 -119 c2 -90 -1 -128 -12 -156 -9
-20 -14 -40 -11 -44 2 -4 42 -31 89 -60 78 -49 84 -55 74 -75 -6 -11 -26 -49
-45 -83 l-34 -62 -71 45 c-39 25 -76 48 -83 50 -7 3 -37 -21 -68 -53 -30 -32
-80 -74 -111 -93 l-55 -35 -1 -122 0 -122 -57 -11 c-32 -7 -62 -14 -69 -17 -6
-2 -28 42 -52 105 l-42 108 -102 0 c-81 0 -116 5 -163 22 -32 12 -61 22 -62
22 -1 0 -30 -47 -64 -104 l-61 -104 -72 45 c-39 26 -72 47 -74 48 -2 2 19 43
45 93 l48 91 -58 52 c-52 46 -107 128 -107 161 -1 36 -14 38 -119 18 -57 -11
-105 -19 -106 -18 -4 4 -34 153 -32 155 1 0 43 12 92 25 l90 23 -3 65 c-4 83
13 191 39 241 l20 39 -81 52 c-44 28 -80 57 -80 65 0 11 44 108 55 121 1 1 45
-14 98 -35 l97 -36 62 60 c64 61 93 81 136 92 24 7 24 7 23 132 l-2 126 53 10
c29 6 56 11 59 12 4 0 26 -46 50 -104z m-3382 -1211 l31 -6 0 -108 0 -108 35
-12 c20 -6 63 -39 98 -71 l62 -60 81 30 c45 17 84 31 87 31 6 0 47 -87 47
-101 0 -4 -31 -28 -70 -53 l-69 -45 21 -48 c17 -38 23 -71 25 -153 l2 -105 76
-20 c42 -11 77 -23 77 -25 2 -8 -13 -102 -18 -115 -4 -9 -25 -8 -92 6 -48 10
-90 15 -93 11 -3 -4 -14 -29 -24 -57 -13 -34 -37 -68 -78 -107 l-59 -57 42
-76 c23 -42 40 -78 39 -79 -14 -12 -121 -77 -123 -74 -2 1 -26 43 -55 91 -30
49 -58 86 -64 83 -62 -26 -126 -37 -197 -34 l-80 3 -29 -75 c-15 -41 -31 -85
-35 -96 -6 -21 -9 -21 -59 -10 l-52 11 -3 108 -3 107 -42 21 c-23 12 -69 50
-102 84 l-60 62 -35 -22 c-19 -11 -52 -31 -72 -43 l-37 -23 -35 64 c-20 35
-36 66 -36 69 0 3 34 27 76 53 65 41 75 51 69 69 -22 72 -26 110 -21 183 l6
82 -69 21 c-37 11 -73 20 -80 20 -6 0 -11 5 -11 11 0 17 22 104 29 111 3 4 42
-2 86 -12 44 -11 83 -19 87 -20 3 0 12 15 18 34 14 43 78 117 136 157 l43 30
-50 85 c-28 47 -49 87 -47 89 8 7 88 45 96 45 4 0 32 -35 62 -77 29 -43 54
-80 56 -81 1 -2 30 6 63 18 49 18 75 22 135 18 l75 -5 37 89 c39 93 41 94 103
82z m2402 -82 l35 -87 75 3 c66 3 118 -6 180 -32 13 -6 31 13 76 77 l58 85 52
-27 52 -26 -49 -85 c-28 -47 -50 -87 -50 -90 0 -3 23 -21 51 -39 58 -40 115
-109 124 -152 8 -35 6 -34 107 -8 44 11 81 19 83 17 9 -11 33 -114 27 -119 -4
-4 -40 -16 -79 -28 l-73 -22 0 -110 c0 -70 -5 -121 -14 -143 l-14 -33 78 -48
78 -49 -28 -55 c-47 -90 -40 -87 -111 -42 -35 23 -69 41 -74 41 -6 0 -35 -25
-65 -56 -30 -30 -74 -67 -97 -81 l-42 -25 -3 -106 -3 -106 -54 -12 c-47 -10
-54 -10 -58 5 -2 9 -19 52 -36 95 l-32 79 -85 -2 c-64 -1 -100 3 -144 19 -33
11 -60 19 -61 18 -1 -2 -25 -43 -54 -91 l-53 -88 -26 17 c-14 9 -40 25 -59 36
-18 11 -33 24 -33 28 0 5 18 41 39 81 l39 71 -63 62 c-46 46 -66 74 -79 114
-14 40 -22 52 -34 48 -10 -3 -44 -10 -77 -16 -33 -6 -67 -13 -76 -16 -12 -3
-18 10 -28 62 -6 37 -11 67 -9 68 2 2 38 11 81 21 l77 19 0 96 c1 68 6 111 20
150 11 30 19 58 20 61 0 4 -31 26 -70 49 -38 23 -70 44 -70 46 0 8 50 104 54
104 3 0 41 -14 85 -31 l81 -31 64 60 c36 33 81 65 100 72 l36 12 0 108 c0 105
1 109 23 113 69 13 70 13 108 -81z"/>
<path d="M3373 5280 c-218 -45 -307 -313 -158 -478 61 -67 128 -97 220 -96 84
1 130 20 192 76 71 66 88 107 88 213 0 80 -3 95 -27 135 -68 116 -193 175
-315 150z"/>
<path d="M8060 5281 c-55 -11 -111 -42 -153 -84 -108 -108 -111 -282 -8 -400
105 -119 304 -124 418 -10 57 57 86 124 86 203 1 138 -85 250 -219 285 -62 16
-70 16 -124 6z"/>
<path d="M4330 4051 c-71 -23 -131 -74 -166 -141 -27 -51 -25 -162 3 -215 83
-158 286 -193 408 -70 123 122 88 327 -69 407 -43 22 -136 32 -176 19z"/>
<path d="M7035 4044 c-100 -35 -166 -130 -166 -239 0 -73 16 -117 62 -170 98
-111 279 -112 377 -1 45 51 62 98 62 170 0 178 -169 299 -335 240z"/>
<path d="M3789 7164 c-35 -90 -101 -305 -125 -409 -23 -101 -28 -143 -28 -270
-1 -175 12 -225 59 -225 35 0 62 15 107 58 l38 36 573 -137 c315 -76 589 -142
607 -147 32 -9 40 -19 81 -107 56 -116 128 -201 229 -268 39 -26 70 -50 70
-53 0 -4 16 -285 36 -624 l37 -617 -96 -103 c-60 -65 -91 -105 -84 -109 19
-10 184 -46 267 -59 93 -14 341 -14 435 -1 82 12 192 35 254 53 l44 13 -117
104 -116 104 5 76 c6 77 55 1108 55 1148 0 16 8 23 30 28 45 10 140 76 195
137 55 60 104 144 130 225 15 45 22 54 49 61 17 5 283 71 592 147 l561 138 44
-30 c39 -27 158 -78 164 -71 14 19 28 93 32 178 9 181 -37 370 -141 578 l-51
104 -51 -57 c-29 -32 -62 -80 -75 -106 -12 -27 -27 -49 -32 -49 -5 0 -291 -36
-635 -81 -611 -78 -625 -80 -646 -62 -11 11 -62 56 -111 100 -100 89 -132 103
-203 84 -32 -9 -58 -30 -119 -96 l-78 -84 -90 76 c-49 41 -100 79 -113 84 -67
26 -167 -14 -269 -106 -34 -30 -69 -55 -80 -55 -10 0 -295 32 -635 72 l-616
72 -73 120 c-106 176 -96 165 -110 130z m85 -251 l45 -78 678 -79 678 -80 65
66 c36 36 84 75 107 87 70 35 94 29 183 -46 44 -36 80 -69 80 -73 0 -4 -20
-11 -45 -15 -113 -16 -241 -120 -303 -244 -36 -73 -37 -77 -37 -191 0 -114 1
-118 37 -191 113 -228 378 -321 602 -210 154 76 246 225 246 400 0 205 -121
370 -317 431 l-55 17 33 39 c18 21 51 58 73 82 62 65 76 61 216 -63 l118 -105
682 88 681 88 24 58 c33 81 40 86 60 40 76 -178 107 -302 109 -446 0 -58 -2
-109 -6 -113 -9 -9 -66 26 -96 58 l-23 24 -137 -33 c-172 -41 -1065 -261
-1113 -274 -33 -9 -37 -14 -53 -71 -42 -153 -156 -295 -269 -337 -32 -12 -66
-22 -76 -22 -23 0 -21 15 -58 -764 l-27 -590 67 -60 c37 -34 67 -64 67 -67 0
-16 -179 -34 -335 -34 -148 0 -299 15 -329 32 -4 3 19 33 53 67 l61 61 -40
670 c-23 369 -45 671 -50 673 -22 8 -132 84 -169 117 -71 64 -161 218 -161
275 0 12 -10 25 -22 30 -23 10 -1307 320 -1325 320 -6 0 -16 -13 -23 -29 -6
-16 -20 -37 -30 -46 -18 -16 -19 -14 -26 41 -4 32 -1 101 6 158 15 130 87 416
104 416 2 0 25 -35 50 -77z"/>
<path d="M6664 6565 c-60 -31 -72 -105 -25 -157 24 -27 36 -33 71 -33 35 0 47
6 71 33 39 43 39 91 2 132 -34 37 -77 46 -119 25z"/>
<path d="M4811 6556 c-13 -7 -30 -24 -37 -37 -54 -97 87 -189 156 -102 63 80
-30 188 -119 139z"/>
<path d="M5712 5435 c-36 -30 -47 -66 -32 -110 14 -41 48 -65 95 -65 20 0 47
7 60 16 29 19 48 72 39 108 -9 38 -59 76 -99 76 -21 0 -44 -9 -63 -25z"/>
<path d="M201 2303 c-19 -10 -44 -31 -55 -46 -21 -28 -21 -33 -21 -1045 l0
-1017 65 -12 c86 -17 272 -18 335 -2 28 6 73 23 102 37 54 26 138 102 148 134
5 15 15 9 59 -36 99 -102 234 -148 436 -149 69 0 135 3 148 7 l22 7 0 1021 c0
1010 0 1021 -20 1054 -14 21 -36 39 -65 49 -55 22 -101 9 -145 -41 l-30 -35 0
-886 0 -886 -41 7 c-83 13 -153 61 -198 136 -20 34 -21 45 -21 498 0 499 0
502 -53 551 -39 36 -111 40 -156 9 -19 -12 -44 -36 -55 -51 -20 -28 -21 -41
-26 -505 -4 -419 -7 -481 -22 -507 -34 -63 -100 -104 -175 -108 l-48 -2 -3
145 c-2 80 2 467 7 860 9 665 9 717 -7 749 -34 70 -116 98 -181 64z m129 -58
l24 -25 -3 -367 c-2 -203 -6 -597 -10 -878 -4 -280 -4 -514 0 -519 14 -17 96
-18 150 -3 66 20 127 69 157 129 22 45 22 49 22 497 0 490 1 496 55 539 38 30
78 28 117 -7 l33 -29 5 -489 5 -488 32 -46 c60 -86 159 -139 260 -139 l43 0 0
890 c0 630 3 896 11 913 25 54 101 66 144 22 l25 -24 0 -1006 0 -1005 -123 0
c-132 0 -238 20 -314 59 -59 30 -130 99 -162 159 l-28 54 -8 -38 c-20 -108
-117 -193 -257 -224 -58 -13 -286 -10 -321 5 -16 7 -17 64 -17 999 0 895 2
994 16 1014 33 48 100 51 144 7z"/>
<path d="M218 2213 c-2 -4 -1 -422 2 -928 l5 -920 77 -3 c132 -5 264 38 347
113 38 35 101 139 101 169 0 31 15 15 44 -47 62 -130 199 -225 359 -248 58 -9
85 -9 103 -1 l24 12 0 915 c0 600 -3 915 -10 915 -6 0 -11 -316 -12 -912 l-3
-913 -26 -3 c-41 -5 -169 26 -229 55 -66 32 -157 121 -186 183 -12 25 -29 60
-38 79 -14 30 -16 88 -16 463 0 279 -3 428 -10 428 -7 0 -10 -157 -10 -450 0
-429 -1 -452 -21 -504 -54 -147 -227 -244 -414 -234 l-60 3 -5 912 c-3 501 -8
914 -11 918 -4 3 -9 3 -11 -2z"/>
<path d="M1470 2180 l0 -140 763 0 c672 -1 758 -2 729 -15 -56 -25 -91 -54
-119 -103 l-28 -47 -5 -355 -5 -355 -40 -6 c-53 -7 -79 -25 -105 -72 -38 -66
-15 -146 53 -187 18 -11 44 -20 60 -20 l27 0 0 -132 c0 -119 3 -138 24 -183
26 -56 43 -73 101 -104 l40 -21 -260 0 c-249 1 -259 1 -233 18 59 36 58 17 58
766 0 757 2 736 -62 776 -44 28 -118 23 -155 -11 -51 -48 -53 -61 -53 -444 l0
-355 -165 0 -165 0 0 371 c0 325 -2 374 -16 399 -51 85 -178 78 -225 -12 -18
-35 -19 -63 -19 -402 l0 -364 -29 -7 c-70 -15 -124 -113 -102 -186 13 -43 61
-87 102 -96 l29 -5 0 -170 c0 -134 3 -177 16 -203 16 -35 45 -59 79 -68 11 -2
-51 -5 -137 -6 l-158 -1 0 -140 0 -140 2060 0 2060 0 0 140 0 140 -72 0 c-70
1 -72 1 -46 16 77 41 77 169 1 220 -24 16 -53 20 -195 24 -157 5 -169 6 -190
28 l-23 23 -5 592 c-5 550 -6 595 -23 620 -62 95 -209 87 -259 -13 -17 -32
-18 -85 -18 -660 0 -378 4 -639 10 -660 18 -65 66 -127 122 -159 l53 -31 -227
0 -227 0 24 24 c49 49 51 139 3 184 -39 35 -74 42 -227 42 -177 0 -181 2 -181
98 l0 62 223 0 c244 0 269 5 311 63 29 39 29 115 0 154 -34 47 -78 63 -175 63
-47 0 -147 3 -222 7 l-137 6 0 302 c0 221 3 304 12 313 8 8 62 12 178 12 141
0 170 3 199 18 37 20 71 73 71 110 0 40 -28 91 -62 112 -30 18 -50 20 -241 20
-154 0 -216 -4 -241 -14 -46 -19 -104 -72 -129 -120 -21 -40 -22 -53 -25 -393
l-3 -353 -30 0 c-148 0 -180 -225 -39 -269 25 -8 51 -15 58 -17 9 -3 12 -38
12 -137 0 -121 2 -138 23 -178 13 -24 43 -59 66 -77 l43 -32 -298 0 -297 0 27
21 c84 66 68 183 -31 225 -23 10 -77 14 -181 14 -179 0 -182 2 -182 98 l0 62
225 0 c242 0 256 2 304 54 36 38 40 110 9 156 -39 57 -76 70 -209 70 -64 0
-164 3 -222 7 l-107 6 0 284 0 285 29 29 29 29 154 0 c172 0 202 9 234 71 32
63 1 154 -61 179 -11 5 472 9 1073 9 l1092 1 0 140 0 140 -2060 0 -2060 0 0
-140z m4080 72 l0 -28 -187 3 c-104 2 -800 7 -1548 13 -1737 13 -2306 20
-2299 31 3 5 893 9 2020 9 l2014 0 0 -28z m-1690 -32 c850 -6 1578 -13 1618
-16 l72 -6 0 -54 0 -54 -2020 0 -2020 0 0 76 0 77 403 -7 c221 -3 1097 -11
1947 -16z m-429 -249 c20 -20 29 -39 29 -61 0 -22 -9 -41 -29 -61 l-29 -29
-152 0 c-169 0 -197 -8 -230 -63 -19 -30 -20 -52 -20 -339 0 -286 1 -308 18
-309 9 -1 122 -4 250 -7 l234 -7 29 -33 c31 -35 36 -66 17 -107 -23 -51 -46
-55 -308 -55 l-240 0 0 -91 c0 -87 1 -92 29 -120 l29 -29 152 0 c167 0 208
-10 229 -56 17 -38 14 -59 -15 -93 l-26 -31 -209 0 c-186 0 -214 2 -247 19
-86 44 -102 88 -102 276 l0 145 -44 0 c-106 0 -153 117 -72 182 14 12 39 18
74 18 l52 0 0 360 c0 387 2 403 53 459 49 53 85 61 300 61 l199 0 29 -29z
m1062 -1 c31 -25 42 -65 26 -102 -21 -51 -50 -58 -237 -58 -168 0 -169 0 -193
-26 l-24 -26 -3 -329 -3 -329 53 -1 c29 -1 144 -4 255 -7 199 -7 203 -7 228
-32 35 -35 40 -77 15 -118 -11 -18 -32 -37 -46 -42 -14 -6 -133 -10 -265 -10
l-239 0 0 -62 c0 -78 14 -129 41 -154 18 -17 42 -20 189 -24 161 -5 170 -6
194 -29 35 -33 36 -92 1 -126 -24 -25 -25 -25 -230 -25 -233 0 -258 6 -312 77
-28 36 -28 38 -31 199 l-3 162 -56 4 c-70 6 -103 37 -103 98 0 61 34 93 106
100 l58 5 -2 340 c-3 382 1 415 60 472 59 57 83 62 299 63 181 0 198 -2 222
-20z m475 4 c53 -37 52 -29 52 -646 0 -551 1 -574 20 -605 33 -55 62 -63 220
-63 189 0 230 -18 230 -100 0 -43 -37 -77 -91 -85 -25 -4 -132 -5 -239 -3
-192 3 -196 3 -242 31 -55 32 -85 71 -104 134 -21 71 -20 1252 1 1293 20 40
53 60 95 60 20 0 46 -7 58 -16z m-3104 -20 l26 -27 0 -388 0 -389 205 0 204 0
3 386 3 386 33 29 c40 36 81 38 119 5 l28 -24 3 -684 c1 -375 0 -693 -3 -706
-10 -40 -41 -62 -89 -62 -100 0 -106 15 -106 260 l0 190 -210 0 -210 0 0 -194
c0 -180 -1 -195 -21 -220 -13 -17 -30 -26 -49 -26 -81 0 -90 25 -90 255 l0
185 -34 0 c-22 0 -45 9 -65 26 -27 22 -31 32 -31 72 1 67 42 112 104 112 l26
0 0 380 c0 403 2 423 47 449 33 19 79 13 107 -15z m309 -1070 l77 -7 0 -169
c0 -187 8 -219 58 -250 26 -17 15 -17 -243 -17 -175 1 -259 4 -239 10 16 5 41
20 55 35 23 25 24 30 27 202 1 97 5 183 7 190 5 14 129 16 258 6z m3377 -519
l0 -35 -1667 5 c-918 3 -1827 8 -2020 11 -325 6 -353 8 -353 23 0 10 3 21 7
24 3 4 912 7 2020 7 l2013 0 0 -35z m-1082 -51 l1082 -6 0 -49 0 -49 -2020 0
-2020 0 0 53 c0 30 2 56 5 58 5 5 1355 2 2953 -7z"/>
<path d="M2969 1950 c-49 -26 -86 -72 -100 -123 -8 -29 -10 -148 -8 -392 l4
-350 -48 -3 c-59 -4 -52 -22 9 -22 l44 0 0 -204 c0 -120 4 -216 11 -233 12
-34 55 -80 89 -98 35 -18 420 -33 420 -16 0 7 -29 11 -87 12 -49 0 -140 4
-203 8 -132 8 -156 19 -190 87 -18 36 -20 60 -20 242 l0 202 275 0 c177 0 275
4 275 10 0 6 -98 10 -273 10 l-274 0 -6 197 c-13 361 -9 523 12 568 21 46 54
79 94 94 16 6 101 11 193 11 103 0 164 4 164 10 0 6 -64 10 -172 10 -151 -1
-178 -3 -209 -20z"/>
<path d="M4045 1944 c-45 -23 -76 -55 -96 -99 -17 -37 -19 -71 -19 -402 l0
-363 -60 0 c-33 0 -60 -4 -60 -10 0 -6 26 -10 59 -10 l58 0 7 -52 c3 -29 6
-127 6 -218 0 -153 2 -168 23 -205 41 -73 74 -83 300 -91 130 -5 197 -4 197 3
0 6 -76 13 -197 17 -215 8 -235 13 -275 68 -22 31 -23 44 -29 248 -3 118 -4
218 -2 223 2 4 121 7 264 7 166 0 259 4 259 10 0 6 -95 10 -265 10 l-265 0 0
360 c0 392 1 400 56 452 46 42 75 48 245 48 99 0 159 4 159 10 0 6 -62 10
-167 10 -133 0 -174 -3 -198 -16z"/>
<path d="M4848 1924 c-14 -13 -10 -1119 4 -1172 16 -63 86 -134 148 -149 53
-14 430 -26 430 -14 0 11 -129 21 -277 21 -135 0 -176 10 -226 58 -65 61 -62
30 -67 675 -3 324 -8 585 -12 581z"/>
<path d="M1748 1904 c-5 -4 -8 -189 -8 -411 l0 -403 -45 0 c-25 0 -45 -4 -45
-10 0 -5 21 -10 46 -10 l45 0 -1 -252 c-1 -281 -1 -283 10 -248 4 14 8 132 9
263 l1 237 103 0 c56 0 186 -3 290 -7 l187 -6 0 -264 c0 -169 4 -263 10 -263
7 0 10 233 10 680 0 447 -3 680 -10 680 -7 0 -10 -142 -10 -407 l0 -406 -172
6 c-95 4 -226 7 -290 7 l-118 0 -2 411 c-2 226 -6 407 -10 403z"/>
<path d="M7482 2183 l3 -138 185 -5 c102 -3 178 -7 170 -8 -34 -5 -141 -63
-180 -98 -22 -20 -53 -58 -68 -83 l-27 -46 -3 -544 c-3 -600 -3 -599 59 -674
41 -49 110 -96 184 -124 l60 -22 -193 0 -193 -1 3 -138 3 -137 2058 -3 2057
-2 0 140 0 140 -182 1 c-165 0 -178 2 -137 13 94 25 186 121 209 218 27 111
-8 207 -114 314 -86 85 -150 124 -323 193 -91 36 -137 60 -147 77 -13 19 -17
61 -19 217 -2 191 -2 193 23 230 28 42 91 77 136 77 45 -1 108 -34 135 -71 23
-33 24 -42 29 -244 6 -225 8 -234 61 -279 25 -21 41 -26 84 -26 46 0 59 5 90
31 19 17 40 47 46 67 6 24 9 125 7 278 l-3 240 -38 76 c-39 79 -96 140 -159
172 -32 15 -26 16 135 16 l167 0 0 140 0 140 -2060 0 -2061 0 3 -137z m4078
72 l0 -25 -2014 0 c-1394 0 -2017 3 -2021 10 -4 6 -4 17 -1 25 5 13 268 15
2021 15 l2015 0 0 -25z m0 -105 l0 -60 -2020 0 -2020 0 0 60 0 60 2020 0 2020
0 0 -60z m-1879 -136 c-17 -14 -35 -42 -41 -62 -6 -22 -10 -187 -10 -413 l0
-377 -30 -12 c-88 -36 -105 -180 -30 -244 16 -13 43 -27 60 -31 l31 -7 -6
-146 c-8 -171 0 -218 46 -256 l31 -26 -168 0 -168 0 30 31 29 30 0 227 0 227
-28 49 c-27 49 -27 49 -8 70 38 41 41 69 41 391 0 292 -1 318 -20 369 -26 68
-86 130 -160 165 -54 25 -58 26 -337 29 l-283 3 0 -429 0 -429 -34 -6 c-49 -8
-84 -34 -108 -80 -24 -49 -20 -115 9 -156 27 -36 81 -71 109 -71 l24 0 0 -161
c0 -172 9 -213 54 -244 18 -13 -14 -15 -284 -15 l-305 1 60 20 c128 44 222
137 244 239 15 70 15 1010 0 1080 -6 28 -25 72 -42 98 -37 54 -135 125 -205
146 -42 13 40 15 741 15 l789 1 -31 -26z m614 4 c-53 -41 -55 -59 -55 -414 0
-364 -1 -371 -68 -422 -32 -24 -45 -27 -134 -30 l-98 -4 0 402 c0 431 -1 438
-52 474 -21 15 -4 16 206 16 l229 0 -28 -22z m509 2 c-70 -35 -121 -87 -156
-158 l-33 -67 -3 -300 c-2 -190 1 -313 7 -336 28 -96 120 -167 251 -195 93
-19 193 -51 242 -75 68 -35 90 -122 44 -176 l-24 -28 -232 -5 -232 -5 -29 -33
c-59 -66 -25 -171 61 -192 24 -5 -15 -8 -119 -9 l-154 -1 27 21 c50 39 56 65
56 228 0 172 -11 217 -80 315 -22 31 -40 58 -40 60 0 1 21 18 46 36 86 65 82
47 90 478 l7 381 -40 41 -41 40 197 0 196 0 -41 -20z m-2631 -38 c74 -27 144
-77 182 -131 l30 -43 3 -546 c2 -368 0 -559 -8 -584 -6 -20 -31 -57 -55 -83
-187 -192 -597 -151 -701 70 l-24 50 0 519 c0 369 3 530 12 558 25 83 123 165
242 200 82 24 237 19 319 -10z m1698 -1 l29 -29 0 -421 0 -421 113 0 c100 0
119 3 158 23 24 13 58 43 74 66 l30 43 5 355 5 355 33 29 c46 41 91 40 138 -4
l36 -33 -7 -373 -7 -373 -39 -39 c-21 -21 -56 -48 -79 -59 l-41 -21 45 -54
c25 -30 57 -81 73 -113 27 -55 28 -61 28 -220 l0 -164 -34 -30 c-28 -25 -39
-29 -70 -24 -21 3 -45 16 -58 31 -21 23 -23 37 -23 128 0 118 -11 164 -47 207
-47 56 -74 64 -218 65 l-130 0 -3 -192 -2 -192 -31 -25 c-39 -33 -79 -33 -118
0 l-31 26 0 193 0 192 -41 6 c-23 3 -51 15 -64 27 -62 58 -25 180 54 180 21 0
21 3 21 388 0 234 4 402 10 424 15 53 51 78 112 78 41 0 54 -5 79 -29z m1406
3 c63 -31 117 -89 152 -163 25 -55 26 -62 29 -281 2 -124 1 -239 -3 -256 -15
-81 -105 -111 -167 -55 l-33 29 -5 215 -5 215 -30 43 c-78 111 -232 118 -322
16 -49 -56 -56 -98 -51 -298 6 -242 -7 -225 256 -334 120 -50 201 -104 269
-177 65 -72 87 -122 87 -198 0 -103 -51 -182 -151 -234 -28 -14 -72 -16 -319
-16 -282 0 -288 0 -311 22 -30 28 -30 74 -1 105 21 23 25 23 230 23 234 0 263
6 298 62 26 42 24 128 -5 172 -24 37 -132 88 -235 111 -190 43 -243 72 -287
154 -23 43 -23 50 -23 332 0 261 2 294 19 339 25 65 62 114 111 146 70 47 104
53 281 54 158 0 167 -1 216 -26z m-2005 -32 c39 -19 77 -46 92 -67 53 -69 56
-92 56 -425 0 -303 0 -307 -23 -341 -15 -22 -32 -35 -50 -37 -21 -3 -27 -9
-27 -28 0 -17 6 -24 18 -24 26 0 48 -27 67 -79 11 -33 15 -89 15 -233 l0 -190
-29 -29 c-33 -33 -56 -36 -107 -14 -52 21 -64 61 -64 202 0 99 -3 123 -20 150
-32 53 -64 63 -200 63 l-120 0 0 -189 0 -189 -31 -26 c-49 -42 -105 -32 -134
24 -12 23 -15 68 -15 205 l0 175 -31 0 c-69 0 -129 56 -129 120 0 59 57 110
125 110 l35 0 0 431 0 430 253 -3 253 -3 66 -33z m-121 -1121 l29 -29 0 -127
c0 -141 14 -184 68 -218 26 -16 17 -16 -182 -17 l-208 0 31 35 31 36 0 174 0
175 101 0 c98 0 101 -1 130 -29z m1019 13 c51 -30 64 -67 68 -194 4 -127 13
-161 50 -190 l25 -20 -232 0 -233 0 31 26 c42 35 51 77 51 247 l0 147 106 0
c80 0 113 -4 134 -16z m1390 -539 l0 -95 -2020 0 -2021 0 3 58 3 57 2013 3
c1330 1 2012 5 2012 12 0 7 -682 10 -2015 10 -1947 0 -2015 1 -2015 18 0 10 3
22 7 25 3 4 912 7 2020 7 l2013 0 0 -95z"/>
<path d="M7834 1940 c-69 -28 -128 -80 -159 -144 l-26 -53 3 -489 c3 -445 5
-492 21 -521 28 -51 85 -103 146 -132 48 -22 69 -26 151 -26 84 0 102 3 152
28 33 16 75 48 98 74 70 80 71 89 68 615 -3 456 -3 464 -25 504 -30 56 -75
100 -137 131 -71 37 -216 43 -292 13z m261 -21 c34 -13 72 -37 100 -65 76 -76
76 -81 73 -610 -3 -449 -3 -460 -25 -499 -109 -203 -446 -205 -547 -4 l-26 53
0 473 c0 379 3 480 14 507 28 68 104 131 186 157 52 15 168 10 225 -12z"/>
<path d="M7915 1801 c-51 -23 -111 -89 -124 -138 -15 -53 -15 -765 0 -818 23
-82 124 -155 215 -155 50 0 135 50 169 98 l30 44 3 401 c2 277 0 414 -8 440
-6 22 -30 58 -53 81 -65 65 -154 83 -232 47z m142 -36 c48 -20 71 -41 94 -87
18 -35 19 -64 19 -423 0 -359 -1 -388 -19 -423 -70 -137 -248 -130 -312 13
-17 36 -19 74 -19 406 0 380 2 405 43 461 24 33 91 68 130 68 15 0 44 -7 64
-15z"/>
<path d="M9710 1510 l0 -430 -30 0 c-16 0 -30 -4 -30 -10 0 -5 14 -10 30 -10
l30 0 0 -133 c0 -171 11 -347 21 -347 5 0 7 107 6 238 l-2 237 225 0 c124 0
237 -4 252 -8 14 -4 40 -19 57 -33 l31 -26 0 -223 c0 -139 4 -226 10 -230 7
-4 10 74 10 225 l0 232 -34 34 c-19 19 -41 34 -50 34 -9 0 -16 5 -16 10 0 6 4
10 9 10 20 0 75 56 92 95 17 36 19 72 19 388 0 225 -4 347 -10 347 -6 0 -10
-119 -10 -337 0 -191 -4 -353 -10 -373 -11 -41 -61 -94 -103 -109 -17 -7 -119
-11 -253 -11 l-224 0 0 430 c0 280 -3 430 -10 430 -7 0 -10 -150 -10 -430z"/>
<path d="M10885 1941 c-90 -25 -161 -84 -194 -162 -21 -48 -22 -62 -19 -314
l3 -264 29 -30 c51 -54 189 -115 372 -166 137 -38 207 -158 159 -273 -22 -51
-52 -81 -110 -108 -47 -22 -61 -24 -242 -24 -122 0 -193 -4 -193 -10 0 -14
363 -13 412 0 52 15 117 67 141 114 65 125 -7 281 -147 317 -163 41 -326 112
-372 160 l-29 30 0 272 c0 300 0 300 67 368 62 61 106 74 258 74 150 0 179 -8
244 -65 20 -18 47 -52 59 -74 21 -39 22 -52 20 -253 -1 -117 1 -213 6 -213 8
0 21 196 21 321 0 134 -57 234 -162 279 -44 20 -73 24 -173 26 -66 2 -133 -1
-150 -5z"/>
<path d="M8730 1521 l0 -451 -50 0 c-27 0 -50 -4 -50 -10 0 -5 23 -10 50 -10
l50 0 0 -265 c0 -170 4 -265 10 -265 6 0 10 95 10 266 l0 266 213 -4 c187 -3
216 -5 242 -22 65 -41 65 -40 65 -278 0 -139 4 -218 10 -218 6 0 10 80 10 221
l0 222 -44 43 -43 44 23 15 c50 33 52 46 56 416 l3 345 -28 43 c-46 70 -78 78
-319 86 l-208 8 0 -452z m305 420 c151 -7 183 -22 217 -98 18 -42 19 -60 12
-366 -5 -243 -10 -329 -20 -349 -27 -53 -53 -58 -284 -58 l-210 0 0 440 0 440
78 -1 c42 0 136 -4 207 -8z"/>
<path d="M8870 1486 l0 -356 113 0 c97 0 119 3 157 23 76 39 80 55 80 330 0
265 -4 287 -64 330 -27 19 -46 22 -158 26 l-128 3 0 -356z m255 320 c19 -8 44
-30 55 -48 18 -31 20 -50 20 -268 0 -204 -2 -240 -18 -270 -27 -54 -69 -70
-189 -70 l-103 0 0 335 0 335 100 0 c65 0 113 -5 135 -14z"/>
<path d="M6212 2291 c-18 -12 -41 -35 -52 -53 -20 -32 -20 -50 -17 -1043 l2
-1010 75 -13 c98 -17 298 -11 367 12 70 22 141 72 182 127 l33 45 52 -52 c100
-99 232 -144 426 -144 65 0 132 3 149 6 l31 7 0 1011 c0 943 -1 1013 -18 1045
-52 103 -182 103 -234 0 -17 -32 -18 -96 -18 -906 0 -716 -2 -873 -13 -873
-41 0 -119 35 -161 71 -90 79 -86 54 -86 586 0 447 -1 469 -20 500 -39 64
-136 82 -199 36 -61 -45 -61 -43 -61 -548 l0 -461 -32 -54 c-39 -65 -101 -101
-172 -102 -25 -1 -48 1 -50 3 -2 2 1 390 7 862 9 786 9 861 -6 892 -32 67
-123 95 -185 56z m115 -41 c18 -11 35 -31 39 -45 4 -15 1 -416 -5 -892 -7
-476 -9 -868 -6 -871 13 -13 133 -6 177 11 52 20 121 89 144 142 11 28 14 118
14 490 0 500 0 499 60 530 44 23 78 19 111 -14 l29 -29 0 -472 0 -471 24 -47
c50 -96 145 -159 257 -169 l59 -6 0 882 c0 967 -2 934 59 966 38 19 71 12 103
-22 l23 -25 0 -1001 0 -1002 -112 -3 c-244 -6 -398 63 -482 217 l-30 55 -6
-30 c-26 -121 -124 -205 -273 -234 -63 -13 -259 -9 -310 6 l-22 6 2 995 3 995
33 29 c38 34 65 36 109 9z"/>
<path d="M6221 1258 c0 -486 4 -903 7 -928 l7 -45 61 -3 c75 -4 188 19 257 51
81 38 132 89 173 173 l38 75 24 -53 c15 -32 54 -82 96 -124 84 -83 161 -119
284 -133 126 -14 112 -126 112 924 0 603 -3 915 -10 915 -7 0 -10 -310 -10
-909 0 -669 -3 -910 -11 -913 -24 -8 -147 11 -201 32 -112 42 -218 146 -255
251 -10 27 -21 49 -25 49 -5 0 -8 196 -8 435 0 283 -3 435 -10 435 -7 0 -10
-157 -10 -450 0 -435 -1 -451 -22 -507 -26 -70 -100 -148 -172 -182 -62 -29
-164 -51 -237 -51 l-56 0 -7 61 c-3 34 -6 448 -6 920 0 566 -3 859 -10 859 -7
0 -10 -300 -9 -882z"/>
</g>
</svg>
