<svg id="Layer_1" data-name="Layer 1" xmlns="http://www.w3.org/2000/svg" xmlns:xlink="http://www.w3.org/1999/xlink" viewBox="0 0 603.75 843.84"><defs><style>.cls-1,.cls-2,.cls-6{fill:none;}.cls-10,.cls-11,.cls-12,.cls-13,.cls-14,.cls-2,.cls-5,.cls-6,.cls-7,.cls-8,.cls-9{stroke:#231f20;stroke-miterlimit:10;}.cls-2{stroke-width:5px;}.cls-3{clip-path:url(#clip-path);}.cls-4{fill:#231f20;}.cls-5,.cls-9{fill:#fff;}.cls-5{stroke-width:2px;}.cls-14,.cls-7{fill:#b9bcbb;}.cls-11,.cls-7,.cls-8,.cls-9{stroke-width:4px;}.cls-12,.cls-8{fill:#6c6f6e;}.cls-10{fill:#6b6d6d;}.cls-10,.cls-12,.cls-13,.cls-14{stroke-width:3px;}.cls-11{fill:#6b6e6d;}.cls-13{fill:#b8bdbb;}</style><clipPath id="clip-path" transform="translate(6.12 -0.13)"><rect class="cls-1" x="-6.12" y="0.13" width="603.75" height="843.84"/></clipPath></defs><path class="cls-2" d="M-834.12,611.52" transform="translate(6.12 -0.13)"/><g class="cls-3"><rect class="cls-4" width="603.75" height="843.84"/><path class="cls-5" d="M29.55,621.61C56,627.27,59.25,612,59.25,612,66.63,626.52,89,622.36,89,622.36V529.94a5.22,5.22,0,0,0-5.1-5.35h0a5.48,5.48,0,0,0-5.34,5.6V611a13.88,13.88,0,0,1-14-9.44V559.69a5.38,5.38,0,0,0-5.21-5.51h0a6.23,6.23,0,0,0-6.13,6.38v41c-3.6,10.76-13.86,8.12-13.86,8.12l1-79.62a5.32,5.32,0,0,0-5.18-5.51h-.39A5.29,5.29,0,0,0,29.55,530Z" transform="translate(6.12 -0.13)"/><path class="cls-5" d="M309.63,622c26.46,5.66,29.7-9.63,29.7-9.63,7.38,14.54,29.7,10.38,29.7,10.38V530.36a5.22,5.22,0,0,0-5.1-5.35h0a5.48,5.48,0,0,0-5.34,5.6v80.85a13.9,13.9,0,0,1-14-9.44V560.11a5.38,5.38,0,0,0-5.21-5.51h0a6.23,6.23,0,0,0-6.13,6.38v41c-3.6,10.76-13.86,8.12-13.86,8.12l1-79.62a5.32,5.32,0,0,0-5.18-5.51h-.39a5.29,5.29,0,0,0-5.16,5.41Z" transform="translate(6.12 -0.13)"/><path class="cls-5" d="M101.59,543.8v33.56h-.37a6.19,6.19,0,0,0-6.06,6.33h0a5.38,5.38,0,0,0,5.26,5.49h1.17V605a4.76,4.76,0,0,0,4.65,4.86h0a4.76,4.76,0,0,0,4.65-4.86V589.27l17.68.09v16a4.76,4.76,0,0,0,4.65,4.86h1.72a4.76,4.76,0,0,0,4.65-4.86V543.49a5.12,5.12,0,0,0-5-5.22h0a5.63,5.63,0,0,0-5.51,5.72l-.15,33.22H111.87V543.46a5.09,5.09,0,0,0-5-5.19h0A5.42,5.42,0,0,0,101.59,543.8Z" transform="translate(6.12 -0.13)"/><path class="cls-5" d="M184.89,542.54h0a5.16,5.16,0,0,1-5.18,5.16l-11.17-.05a5.17,5.17,0,0,0-5.19,5.16V579l20.77.47a5.52,5.52,0,0,1,5.39,5.53h0a5.52,5.52,0,0,1-5.52,5.52H163.35v5.68a3.8,3.8,0,0,0,3.8,3.8h12a5.15,5.15,0,0,1,5.14,5.08h0a5.15,5.15,0,0,1-5.14,5.21h-17s-7.08-1.29-8-8.49V589.67h-1.75a5.72,5.72,0,0,1-5.72-5.71h0a5.72,5.72,0,0,1,5.72-5.72h2.11l-.13-30.32a10.56,10.56,0,0,1,10.57-10.61l14.84.07A5.15,5.15,0,0,1,184.89,542.54Z" transform="translate(6.12 -0.13)"/><path class="cls-5" d="M234.53,543h0a5.16,5.16,0,0,1-5.18,5.16l-13.44-.06A2.91,2.91,0,0,0,213,551v28.41l20.77.47a5.52,5.52,0,0,1,5.39,5.53h0a5.52,5.52,0,0,1-5.52,5.52H213v5.54a3.94,3.94,0,0,0,3.94,3.94h11.86a5.14,5.14,0,0,1,5.14,5.08h0a5.14,5.14,0,0,1-5.14,5.21h-17s-7.08-1.29-8-8.49V590.15H202a5.72,5.72,0,0,1-5.72-5.71h0a5.72,5.72,0,0,1,5.72-5.72h2.11L204,548.4a10.56,10.56,0,0,1,10.57-10.61l14.85.07A5.15,5.15,0,0,1,234.53,543Z" transform="translate(6.12 -0.13)"/><path class="cls-5" d="M251.36,537.79h0a6,6,0,0,1,6,6V594.3A5.65,5.65,0,0,0,263,600h11.23a5.18,5.18,0,0,1,5.18,5.18h0a5.18,5.18,0,0,1-5.11,5.18l-17,.24a11.74,11.74,0,0,1-11.91-11.74v-55A6,6,0,0,1,251.36,537.79Z" transform="translate(6.12 -0.13)"/><rect class="cls-5" x="98.43" y="524.46" width="189.84" height="10.8"/><rect class="cls-5" x="378.24" y="524.46" width="189.84" height="10.8"/><rect class="cls-5" x="378.24" y="611.92" width="189.84" height="10.8"/><rect class="cls-5" x="98.43" y="611.98" width="189.84" height="10.8"/><path class="cls-5" d="M395.13,536.89a23.67,23.67,0,0,0-13.74,4.1c-3.52,2.53-5.7,6-5.7,9.9v45.66c0,7.73,8.71,14,19.44,14a23.72,23.72,0,0,0,13.75-4.1c3.52-2.53,5.69-6,5.69-9.9V550.89C414.57,543.16,405.87,536.89,395.13,536.89Zm9,51.89a10,10,0,0,1-2.66,6.82,8.84,8.84,0,0,1-6.43,2.82,9.38,9.38,0,0,1-9.09-9.64V557.33a9.91,9.91,0,0,1,2.66-6.81,8.81,8.81,0,0,1,6.43-2.83,9.38,9.38,0,0,1,9.09,9.64Z" transform="translate(6.12 -0.13)"/><path class="cls-5" d="M462.33,604.5V590.17s-.66-7.2-5.1-7.77c1.24,0,4.18-.52,4.95-5.1l.09-26.82c0-.28-.09-11.8-14.85-12.69H427v40h-1.17a6.39,6.39,0,1,0,0,12.78H427v14.89a5.13,5.13,0,1,0,10.26,0V590.35h8.37a5.49,5.49,0,0,1,5.49,5.49v8.66a6.05,6.05,0,0,0,6.05,6h.32C460.82,610.55,462.6,607.56,462.33,604.5ZM436,578.29V546.43h9.45a6,6,0,0,1,6,6v19.71a6.12,6.12,0,0,1-6.12,6.12Z" transform="translate(6.12 -0.13)"/><path class="cls-5" d="M477.89,536.89h1.17a5.71,5.71,0,0,1,5.71,5.71V579h7.07a8.69,8.69,0,0,0,8.68-8.69V542.6a5.72,5.72,0,0,1,5.72-5.71h0c3.15,0,6.64,3.45,5.92,5.73l-.6,32.72s-.59,2.92-6.84,6.3c0,0,5.7,5.74,6.51,12.13l-.18,11.46a5.41,5.41,0,0,1-5.41,5.32h0a5.41,5.41,0,0,1-5.41-5.38l0-7.7a7.18,7.18,0,0,0-7.15-7.16l-9.17,0v14.92a5.38,5.38,0,0,1-5.37,5.37h0a5.37,5.37,0,0,1-5.38-5.42l.13-15.23h-1a5.13,5.13,0,0,1-5.21-5.13v-1.36a5.13,5.13,0,0,1,5.13-5.13h0V542.6A5.72,5.72,0,0,1,477.89,536.89Z" transform="translate(6.12 -0.13)"/><path class="cls-5" d="M544.17,594.61v1.18a4.81,4.81,0,0,1-4.81,4.82H522.13a4.6,4.6,0,0,0-4.6,4.6h0a4.6,4.6,0,0,0,4.6,4.61h24.09a6,6,0,0,0,2.21-.48c2.67-1.14,8.84-4.64,8.7-12.69-.18-10.26-14.22-16.74-14.22-16.74l-10.84-4.38a5.46,5.46,0,0,1-3.43-5l-.19-14.12a8.6,8.6,0,0,1,8.61-8.72h0a8.6,8.6,0,0,1,8.6,8.55l.1,14.86a5.69,5.69,0,0,0,5.78,5.66h0a5.69,5.69,0,0,0,5.59-5.69V550.51c-2-8.76-8.34-13.62-13.62-13.62H531.15c-7.32.9-12.48,6.18-13.62,13.86h0v24.66s.9,8.64,11.88,10.44a37.14,37.14,0,0,1,11.75,3.69,5.74,5.74,0,0,1,3,5.07h0" transform="translate(6.12 -0.13)"/><path class="cls-6" d="M393.72,540.49a15.71,15.71,0,0,0-10.18,3.57,11.26,11.26,0,0,0-4.22,8.61v39.71c0,6.73,6.45,12.18,14.4,12.18A15.71,15.71,0,0,0,403.9,601a11.27,11.27,0,0,0,4.22-8.61V552.67C408.12,545.94,401.67,540.49,393.72,540.49Zm10.41,48.29a10,10,0,0,1-2.66,6.82,8.84,8.84,0,0,1-6.43,2.82,9.38,9.38,0,0,1-9.09-9.64V557.33a9.91,9.91,0,0,1,2.66-6.81,8.81,8.81,0,0,1,6.43-2.83,9.38,9.38,0,0,1,9.09,9.64Z" transform="translate(6.12 -0.13)"/><path class="cls-6" d="M33.24,528.24l.48,85.92S53.4,617,57.6,600.6V558.36" transform="translate(6.12 -0.13)"/><path class="cls-6" d="M58.32,598.92s3.24,16.2,22.44,16.2l1.2-.72V529.68" transform="translate(6.12 -0.13)"/><path class="cls-6" d="M312.6,531.84l.48,85.92s19.68,2.88,23.88-13.56V562" transform="translate(6.12 -0.13)"/><path class="cls-6" d="M337.68,602.52s3.24,16.2,22.44,16.2l1.2-.72V533.28" transform="translate(6.12 -0.13)"/><line class="cls-6" x1="110.61" y1="542.51" x2="110.16" y2="605.63"/><line class="cls-6" x1="105.84" y1="581.15" x2="138" y2="581.42"/><line class="cls-6" x1="138.48" y1="543.23" x2="138.48" y2="606.59"/><path class="cls-6" d="M178.68,540.24l-13.49-.11a8.69,8.69,0,0,0-8.7,8.81l.41,50.75a7.75,7.75,0,0,0,7.59,7.74l16.23.25" transform="translate(6.12 -0.13)"/><path class="cls-6" d="M228.36,540.72l-13.49-.11a8.69,8.69,0,0,0-8.7,8.81l.41,50.75a7.75,7.75,0,0,0,7.59,7.74l16.23.25" transform="translate(6.12 -0.13)"/><line class="cls-6" x1="158.04" y1="581.33" x2="189.18" y2="581.51"/><line class="cls-6" x1="206.28" y1="581.57" x2="237.42" y2="581.75"/><path class="cls-6" d="M248.76,541.73v52.35c0,5.19,4.43,9.43,10,9.52l17,.29" transform="translate(6.12 -0.13)"/><path class="cls-6" d="M424.44,582l24.14.2a5.82,5.82,0,0,0,5.85-5.8l.25-27.72a7.89,7.89,0,0,0-7.66-8l-17.16-.43-.25,67.08" transform="translate(6.12 -0.13)"/><path class="cls-6" d="M446.46,582.24l2.27.12a7.38,7.38,0,0,1,5.89,4.08V607" transform="translate(6.12 -0.13)"/><path class="cls-6" d="M494.7,581.88,497,582a7.38,7.38,0,0,1,5.89,4.08v20.58" transform="translate(6.12 -0.13)"/><line class="cls-6" x1="481.32" y1="541.19" x2="481.68" y2="604.55"/><path class="cls-6" d="M472,581.82h23a8.64,8.64,0,0,0,8.64-8.64v-30.6" transform="translate(6.12 -0.13)"/><path class="cls-6" d="M504.72,606.84" transform="translate(6.12 -0.13)"/><path class="cls-6" d="M494.64,580.92" transform="translate(6.12 -0.13)"/><path class="cls-6" d="M551.29,570.06l.23-16.86c.09-6.54-5.54-11.88-12.52-11.88h-6.52c-7,0-12.59,5.33-12.51,11.86l.25,22s1.24,4.63,19,9.27A10,10,0,0,1,547,594h0c0,5.51-4.76,10-10.64,10h-16.1" transform="translate(6.12 -0.13)"/><line class="cls-6" x1="378" y1="527.87" x2="568.08" y2="527.87"/><line class="cls-6" x1="378" y1="615.71" x2="566.64" y2="615.71"/><line class="cls-6" x1="98.4" y1="526.67" x2="288.48" y2="528.29"/><line class="cls-6" x1="97.92" y1="615.71" x2="288.72" y2="616.43"/><polygon class="cls-7" points="208.47 206.82 297.79 297.18 387.03 206.82 297.79 240.3 208.47 206.82"/><polygon class="cls-4" points="232.95 223.02 297.75 267.66 361.83 223.02 297.79 248.58 232.95 223.02"/><path class="cls-8" d="M172.23,361.87h11L188,350.23s-12.24-59.4,48.24-100.08l-9.36-10.08S160.47,273.43,172.23,361.87Z" transform="translate(6.12 -0.13)"/><path class="cls-8" d="M412.19,361.87h-11l-4.68-11.64s12.24-59.4-48.24-100.08l9.36-10.08S424,273.43,412.19,361.87Z" transform="translate(6.12 -0.13)"/><path class="cls-9" d="M200.19,301s-10,26-5.28,37.14c0,0,3.24,0,5.28-4.8L260,347.71s2,12.48,16,19.44l3.6,60.24-7.44,7.92a75,75,0,0,0,39.6,0L303,427.39l2.88-60.24s13.44-1.92,17.52-19.92l57.48-14.16a17.55,17.55,0,0,0,7.8,4.56s4.56-13.44-6.72-34.32c0,0-4.08,4.08-4.8,8.16l-61.44,7.92-10.8-9.6s-3.6-1-5.76,1.2-6.24,7.2-6.24,7.2l-1.68.24-8.4-7s-2.4-2.4-7.2.24a27,27,0,0,0-7.92,7l-61.2-7.2Z" transform="translate(6.12 -0.13)"/><circle class="cls-10" cx="297.35" cy="339.94" r="19.44"/><circle class="cls-4" cx="255.04" cy="329.93" r="4.44"/><circle class="cls-4" cx="229.95" cy="325.74" r="3.12"/><circle class="cls-4" cx="341.26" cy="329.93" r="4.8"/><circle class="cls-4" cx="297.76" cy="381.95" r="4.8"/><circle class="cls-4" cx="366.15" cy="325.5" r="3.24"/><circle class="cls-4" cx="297.35" cy="407.75" r="3.24"/><path class="cls-11" d="M260.67,224.77c-1.52.65,30.6,12.24,30.6,12.24l30.06-12.24S293.79,210.55,260.67,224.77Z" transform="translate(6.12 -0.13)"/><path class="cls-12" d="M266.12,440.11l-7.16,4.5v10.08s28.3,8.46,63.24,0v-10.8l-7-5S291.63,446.77,266.12,440.11Z" transform="translate(6.12 -0.13)"/><path class="cls-13" d="M166.36,360.31l-8.64,4.31,5.58,9.54s-7.2,4.32-9,10.26l-9.72-2.35L142.05,392l9,2.7s-1.26,8.92.9,13.19l-8.46,5.35,5.58,10.44,8.1-5s4.86,5.94,9.18,7.75V438l8.82,2.08,4-10.44a24,24,0,0,0,13.5-1.62l5.93,10,9.55-6-4.6-8.64A17.56,17.56,0,0,0,211,413.05l10.08,2,2-10.39-8.82-2.22s1.08-8.46-2-14.4l7.74-4.86-4-8.82-9.72,3.78s-5-6.12-9.18-7l.18-11.6L189.4,358l-4.14,9.9a19.24,19.24,0,0,0-12.6,1.6Z" transform="translate(6.12 -0.13)"/><path class="cls-13" d="M416.73,360.31l8.64,4.32-5.58,9.54s7.2,4.32,9,10.26l9.72-2.36L441,392l-9,2.7s1.26,8.92-.9,13.19l8.46,5.35L434,423.67l-8.1-5s-4.86,5.94-9.18,7.74V438l-8.82,2.08-4-10.44a24,24,0,0,1-13.5-1.62l-5.94,10L375,432l4.6-8.64a17.56,17.56,0,0,1-7.48-10.26L362,415l-2-10.39,8.82-2.21s-1.08-8.46,2-14.4l-7.74-4.86,4-8.82,9.72,3.78s5-6.12,9.18-7l-.18-11.6,7.92-1.54,4.14,9.9a19.24,19.24,0,0,1,12.6,1.6Z" transform="translate(6.12 -0.13)"/><circle class="cls-4" cx="406.65" cy="398.88" r="13.55"/><path class="cls-13" d="M213.31,420.61l-7.54,3.77,4.87,8.33s-6.29,3.78-7.86,9l-8.49-2.05-2.2,8.66,7.86,2.35s-1.1,7.79.79,11.52l-7.39,4.68,4.87,9.11,7.08-4.4s4.24,5.19,8,6.76v10.14l7.71,1.81,3.45-9.12a20.94,20.94,0,0,0,11.79-1.41l5.19,8.72,8.33-5.27-4-7.54a15.33,15.33,0,0,0,6.53-9l8.8,1.73,1.73-9.08-7.7-1.93s.94-7.38-1.73-12.57l6.76-4.25-3.46-7.7-8.49,3.3s-4.4-5.34-8-6.13l.16-10.13-6.91-1.34-3.62,8.64a16.86,16.86,0,0,0-11,1.4Z" transform="translate(6.12 -0.13)"/><circle class="cls-4" cx="233.58" cy="454.28" r="11.83"/><path class="cls-14" d="M368.4,420.61l7.55,3.77-4.88,8.33s6.29,3.78,7.86,9l8.49-2.05,2.2,8.66-7.86,2.35s1.1,7.79-.78,11.52l7.39,4.68-4.88,9.11-7.07-4.4s-4.25,5.19-8,6.76v10.14l-7.7,1.81-3.46-9.12a20.94,20.94,0,0,1-11.79-1.41l-5.19,8.72-8.33-5.27,4-7.54a15.33,15.33,0,0,1-6.53-9l-8.81,1.73-1.73-9.08,7.71-1.93s-.95-7.38,1.72-12.57l-6.75-4.25,3.45-7.7,8.49,3.3s4.4-5.34,8-6.13l-.16-10.13,6.92-1.34,3.61,8.64a16.88,16.88,0,0,1,11,1.4Z" transform="translate(6.12 -0.13)"/><circle class="cls-4" cx="360.37" cy="454.28" r="11.83"/><circle class="cls-4" cx="188.67" cy="398.88" r="13.55"/></g></svg>