<?xml version="1.0" standalone="no"?>
<!DOCTYPE svg PUBLIC "-//W3C//DTD SVG 20010904//EN"
 "http://www.w3.org/TR/2001/REC-SVG-20010904/DTD/svg10.dtd">
<svg version="1.0" xmlns="http://www.w3.org/2000/svg"
 width="747.000000pt" height="683.000000pt" viewBox="0 0 747.000000 683.000000"
 preserveAspectRatio="xMidYMid meet">
<metadata>
Created by potrace 1.16, written by Peter Selinger 2001-2019
</metadata>
<g transform="translate(0.000000,683.000000) scale(0.100000,-0.100000)"
fill="#000000" stroke="none">
<path d="M1981 6183 c173 -175 635 -643 1028 -1040 393 -398 718 -723 722
-723 9 0 2059 2073 2055 2078 -2 1 -304 -110 -671 -248 -368 -137 -671 -250
-674 -250 -3 0 0 4 8 9 18 12 -90 67 -204 105 -337 110 -715 110 -1050 -1
-141 -46 -165 -59 -165 -88 0 -14 -3 -25 -7 -25 -3 0 -306 113 -673 250 -367
138 -671 250 -676 250 -4 0 134 -143 307 -317z m913 -229 l839 -314 856 321
c470 176 860 323 866 326 17 10 -492 -509 -1129 -1152 l-594 -600 -638 645
c-351 355 -742 750 -868 878 -159 160 -222 230 -201 222 17 -7 408 -153 869
-326z"/>
<path d="M2361 6046 c2 -2 312 -216 688 -475 l684 -471 46 34 c25 18 201 141
391 273 790 550 923 643 917 643 -4 0 -310 -121 -681 -269 l-673 -270 -684
270 c-376 148 -686 269 -688 269 -2 0 -2 -2 0 -4z"/>
<path d="M2330 5733 c-84 -33 -320 -213 -464 -352 -215 -210 -363 -415 -496
-686 -120 -243 -190 -468 -232 -740 -34 -227 -35 -619 -2 -860 l6 -40 -36 53
c-20 28 -41 52 -46 52 -15 0 -230 -109 -230 -116 0 -3 25 -48 55 -99 30 -52
55 -97 55 -100 0 -4 -23 -27 -50 -52 -28 -25 -65 -66 -82 -92 -17 -25 -32 -47
-33 -49 -1 -1 -48 8 -104 21 -56 13 -103 21 -106 18 -12 -21 -65 -255 -58
-261 4 -5 47 -20 96 -34 l87 -27 0 -92 c0 -51 4 -106 9 -124 9 -31 9 -32 -75
-84 -47 -29 -87 -56 -90 -61 -5 -7 117 -250 135 -270 4 -4 43 15 86 42 44 27
84 50 88 50 5 0 34 -23 65 -51 32 -28 69 -58 85 -67 l27 -16 0 -127 0 -127
113 -26 c61 -14 117 -26 122 -26 6 0 28 49 50 108 l41 107 94 6 c52 4 110 12
129 18 19 6 35 10 36 8 16 -21 105 -180 103 -183 -2 -1 -20 1 -41 6 -20 4 -39
5 -41 1 -7 -13 -58 -232 -55 -235 2 -2 40 -15 83 -28 l79 -24 2 -84 c1 -47 5
-95 9 -106 6 -19 -5 -29 -74 -73 l-81 -51 57 -108 c85 -159 68 -148 156 -92
l76 48 28 -30 c16 -16 50 -45 77 -65 l47 -35 0 -108 0 -108 98 -22 c53 -12
101 -23 105 -24 5 0 25 42 45 95 l37 97 85 5 c47 3 97 9 111 12 24 6 30 0 80
-84 29 -50 57 -91 61 -91 6 0 204 124 217 136 3 3 -12 40 -33 83 l-39 78 45
54 c24 30 50 69 57 87 10 25 18 31 35 27 91 -21 162 -33 167 -27 7 8 52 243
47 247 -2 1 -39 11 -82 21 l-79 20 -3 59 c-2 33 -8 86 -15 118 -10 49 -10 60
2 68 8 5 17 9 22 9 4 0 7 -54 7 -120 l0 -120 26 -10 c48 -18 287 -58 424 -71
261 -23 649 2 890 59 l75 17 5 129 5 128 24 -19 c21 -17 22 -22 12 -58 -6 -22
-14 -74 -17 -116 l-7 -76 -78 -18 c-44 -10 -79 -23 -79 -28 0 -13 42 -241 45
-245 2 -2 106 18 171 33 16 3 24 -4 37 -34 10 -21 36 -60 59 -86 l42 -48 -42
-78 -42 -79 43 -27 c23 -14 72 -46 110 -70 37 -24 71 -43 75 -43 4 0 31 41 61
91 52 90 53 91 85 84 17 -4 67 -10 111 -14 l79 -6 37 -95 c19 -52 40 -94 45
-94 5 1 53 12 107 24 l97 22 0 112 c0 111 0 112 28 128 15 9 48 35 74 57 25
23 50 41 55 41 4 0 39 -20 77 -45 l70 -44 26 47 c15 26 45 82 68 124 l41 78
-77 50 -78 49 4 98 c2 54 5 103 7 109 2 6 40 21 84 34 45 12 81 25 81 27 0 3
-9 41 -21 86 -41 167 -36 155 -65 149 -25 -4 -26 -4 -13 19 12 23 89 151 94
157 1 1 15 -3 31 -9 16 -6 73 -14 128 -18 l98 -6 40 -107 c26 -70 46 -108 55
-108 8 0 49 9 91 19 43 10 89 22 105 25 l27 6 0 125 0 124 33 22 c17 12 57 46
87 75 l55 53 89 -55 c49 -30 90 -53 92 -52 4 5 144 268 144 272 0 2 -40 30
-89 61 l-90 56 7 37 c4 20 7 76 7 125 0 69 3 88 15 91 115 33 166 49 172 54 6
6 -38 205 -57 259 -2 8 -33 4 -105 -13 -56 -13 -103 -24 -104 -24 -2 0 -17 23
-35 50 -18 28 -56 71 -86 96 l-53 46 59 100 c33 55 57 103 55 106 -2 4 -54 32
-116 62 l-112 55 -26 -30 c-25 -29 -25 -29 -19 -5 4 14 12 113 19 221 37 604
-103 1158 -411 1620 -187 282 -418 515 -681 689 -47 31 -101 62 -119 70 l-34
14 -63 -70 c-35 -38 -91 -99 -124 -136 l-60 -66 67 -48 c367 -258 644 -576
809 -930 55 -117 115 -295 143 -420 48 -215 64 -487 40 -660 l-11 -77 58 -143
58 -143 133 -3 133 -3 -25 -37 c-23 -35 -27 -37 -53 -26 -15 6 -69 13 -120 17
l-94 6 -40 95 c-22 52 -43 98 -47 103 -4 4 -39 1 -77 -7 -38 -7 -86 -17 -106
-20 l-38 -7 0 -128 0 -127 -32 -16 c-18 -8 -56 -36 -84 -62 -29 -25 -56 -46
-61 -46 -5 0 -50 16 -99 35 -49 19 -94 35 -100 35 -10 0 -120 -228 -112 -234
1 -2 37 -25 78 -51 41 -26 76 -49 78 -50 1 -1 -4 -28 -13 -60 -8 -32 -16 -93
-17 -136 l-2 -77 -81 -21 c-44 -12 -86 -21 -92 -21 -7 0 -13 -8 -13 -17 0 -21
47 -263 52 -268 2 -2 46 5 98 15 52 11 100 19 107 19 7 1 21 -19 31 -43 11
-24 37 -63 58 -86 l39 -43 -92 47 -92 46 -53 -77 c-29 -43 -55 -81 -59 -85 -3
-4 -37 -1 -77 7 -39 8 -86 14 -103 13 -31 -3 -32 -1 -71 88 l-39 91 -62 -12
c-34 -7 -79 -16 -99 -19 l-38 -7 0 -112 0 -112 -34 -19 c-19 -10 -51 -35 -71
-56 l-37 -38 -86 34 c-48 19 -92 34 -98 34 -6 0 -28 -39 -48 -87 -21 -49 -42
-92 -46 -97 -5 -4 -29 6 -53 23 l-46 31 -103 -25 c-284 -69 -615 -74 -909 -13
-52 11 -58 10 -87 -10 -16 -12 -34 -22 -39 -22 -6 0 -30 45 -54 100 -24 55
-49 100 -54 100 -6 0 -49 -15 -97 -34 l-86 -34 -34 35 c-18 19 -52 46 -76 60
l-43 25 7 108 7 107 -94 18 c-52 10 -98 18 -102 19 -4 0 -25 -39 -46 -88 l-39
-90 -69 -2 c-37 -2 -81 -7 -96 -13 -16 -6 -32 -11 -36 -11 -4 0 -33 38 -65 85
l-58 84 -58 -29 -58 -29 34 57 c18 31 37 63 41 71 7 11 26 10 112 -8 57 -12
105 -20 107 -19 9 10 54 272 47 278 -4 4 -30 13 -58 19 -27 7 -67 16 -87 22
l-38 10 0 67 c-1 61 -4 83 -25 177 -6 29 -3 32 74 80 45 27 80 53 79 56 -42
100 -105 229 -113 229 -5 0 -55 -18 -109 -39 l-99 -39 -46 45 c-25 24 -66 56
-90 70 l-44 27 7 121 6 122 -111 22 c-61 12 -112 21 -113 19 -1 -2 -21 -48
-43 -103 l-41 -100 -94 -6 c-51 -4 -105 -11 -120 -17 -24 -10 -29 -8 -52 23
-14 18 -26 36 -26 39 0 3 66 7 147 8 l147 3 57 139 58 140 -9 65 c-5 36 -10
134 -10 218 0 469 145 893 443 1288 90 119 315 338 453 440 66 50 132 99 147
110 l27 20 -121 130 c-66 72 -126 131 -132 132 -7 1 -19 -1 -27 -4z m-650
-2740 c0 -109 2 -124 18 -129 42 -13 81 -41 139 -97 l62 -61 96 38 c53 21 100
35 104 30 5 -5 20 -35 34 -66 l26 -57 -83 -52 -83 -52 18 -41 c26 -60 42 -170
36 -242 l-6 -62 82 -22 c45 -11 87 -23 93 -25 16 -5 -14 -155 -32 -155 -11 0
-122 21 -181 35 -18 4 -23 -1 -28 -28 -16 -72 -86 -168 -151 -205 -18 -10 -16
-16 30 -102 26 -50 46 -93 44 -95 -4 -4 -106 -71 -134 -88 -6 -3 -34 35 -69
94 -32 55 -61 102 -65 104 -4 2 -31 -5 -61 -17 -43 -17 -76 -22 -160 -22
l-106 -1 -39 -103 c-21 -57 -41 -105 -45 -107 -3 -2 -33 3 -67 12 l-61 15 -3
121 -3 121 -40 21 c-21 11 -72 53 -112 93 l-72 73 -82 -51 c-44 -28 -82 -50
-83 -48 -13 17 -87 160 -84 163 2 1 43 28 91 59 l88 56 -18 32 c-15 27 -18 56
-17 159 l1 126 -89 27 c-48 14 -88 31 -88 37 0 13 30 133 35 137 2 3 134 -28
186 -44 12 -3 21 8 33 40 21 54 82 126 145 168 25 17 48 32 50 34 2 2 -21 45
-50 96 -30 51 -55 96 -57 100 -5 11 119 71 128 61 4 -4 32 -44 61 -88 30 -43
56 -83 59 -87 3 -4 39 4 80 18 61 21 88 25 152 22 l79 -3 39 92 c21 51 41 96
44 101 3 5 30 4 61 -1 l55 -10 0 -124z m4258 37 l39 -95 84 3 c68 2 97 -2 154
-22 39 -13 70 -24 71 -23 36 58 126 187 130 187 2 0 32 -14 65 -30 50 -26 58
-33 50 -48 -5 -9 -30 -52 -55 -95 -25 -43 -46 -81 -45 -85 0 -4 27 -26 60 -50
62 -44 116 -110 135 -165 13 -37 14 -37 138 -6 43 11 79 19 81 17 6 -8 35
-141 32 -145 -2 -2 -44 -16 -92 -31 l-87 -27 1 -116 c1 -81 -3 -129 -13 -160
-8 -24 -14 -44 -13 -45 1 0 39 -25 85 -53 45 -29 82 -58 82 -64 0 -19 -80
-158 -88 -153 -4 2 -40 25 -81 50 l-74 46 -81 -78 c-45 -43 -96 -84 -113 -91
l-33 -13 0 -123 0 -123 -67 -16 c-37 -8 -68 -14 -69 -13 0 1 -19 49 -41 107
l-40 105 -104 0 c-81 1 -117 6 -163 23 -33 12 -60 21 -61 19 -1 -1 -28 -46
-60 -99 -31 -54 -61 -98 -66 -98 -10 0 -139 81 -139 87 0 3 21 45 47 95 43 83
45 91 28 100 -44 25 -97 84 -125 140 -16 34 -30 67 -30 75 0 17 -20 16 -117
-2 -43 -8 -83 -15 -90 -15 -6 0 -17 26 -23 58 -6 31 -14 66 -16 77 -5 19 4 23
88 43 l93 23 1 112 c0 82 5 124 18 157 9 25 20 53 23 62 4 12 -11 27 -57 55
-110 67 -105 58 -71 131 17 34 33 62 36 62 3 0 47 -16 99 -36 l94 -36 66 65
c40 40 83 72 111 82 l45 18 0 123 0 122 53 9 c28 5 55 7 59 4 3 -3 24 -49 46
-101z m-3375 -1196 l37 -7 0 -108 0 -107 36 -12 c19 -7 64 -39 100 -72 l64
-60 77 31 c43 17 81 31 85 31 7 0 48 -86 48 -101 0 -4 -31 -28 -70 -53 l-69
-45 21 -48 c16 -36 23 -75 26 -154 l4 -106 77 -18 78 -17 -10 -57 c-5 -31 -13
-60 -17 -64 -4 -5 -43 -2 -85 7 -97 20 -105 20 -105 -1 -1 -49 -66 -143 -129
-185 l-23 -17 41 -76 c22 -42 41 -78 41 -80 0 -6 -109 -75 -118 -75 -4 0 -30
39 -57 86 -41 71 -53 85 -70 80 -11 -3 -45 -12 -75 -21 -39 -12 -76 -15 -126
-11 l-71 5 -33 -87 c-18 -48 -35 -90 -39 -95 -4 -4 -31 -2 -59 4 l-52 12 0
108 0 107 -31 13 c-17 7 -63 43 -101 80 l-68 68 -65 -39 c-36 -22 -70 -40 -75
-40 -9 0 -70 111 -70 127 0 4 34 28 75 53 54 32 73 49 69 60 -20 48 -26 95
-22 177 l4 93 -71 21 c-38 12 -74 24 -78 29 -8 7 11 120 19 120 1 0 40 -9 86
-20 46 -11 86 -20 89 -20 4 0 10 12 14 27 3 15 22 48 40 73 31 40 48 55 120
104 18 13 17 16 -28 95 -26 44 -47 84 -47 89 0 7 82 52 95 52 3 0 30 -36 61
-81 40 -57 61 -79 73 -75 9 2 36 12 61 21 31 12 68 16 119 13 l74 -3 36 87
c20 49 41 88 46 88 6 0 27 -3 48 -6z m2397 -84 l36 -85 75 3 c57 3 87 -1 129
-17 30 -12 58 -21 61 -21 4 0 30 35 59 78 30 42 55 79 57 81 5 7 103 -41 103
-50 0 -5 -20 -42 -45 -82 -25 -41 -45 -79 -45 -85 0 -6 15 -20 34 -31 50 -31
122 -112 135 -154 7 -20 18 -37 24 -37 7 0 45 9 86 20 41 10 78 17 82 15 12
-8 32 -106 23 -115 -5 -4 -41 -18 -80 -29 l-71 -21 4 -93 c3 -65 0 -106 -11
-142 -8 -27 -14 -50 -13 -51 1 -1 35 -22 75 -48 39 -25 72 -48 72 -52 0 -13
-66 -124 -74 -124 -5 0 -38 18 -73 41 l-64 40 -63 -63 c-34 -35 -79 -72 -99
-83 l-37 -20 0 -106 0 -106 -56 -12 c-30 -7 -57 -11 -58 -9 -2 1 -18 45 -37
95 l-33 93 -66 -6 c-60 -6 -94 -1 -206 31 -18 6 -28 -6 -70 -79 -27 -47 -52
-86 -56 -86 -11 0 -118 70 -118 77 0 3 18 40 41 81 39 70 40 76 23 85 -39 21
-102 97 -119 143 -10 27 -21 52 -25 56 -3 4 -41 1 -84 -7 -107 -21 -103 -22
-110 33 -4 26 -9 54 -12 63 -3 12 12 19 76 34 l80 18 0 86 c0 76 8 122 35 207
6 18 -4 28 -63 64 l-70 43 20 46 c10 25 23 50 27 54 5 5 45 -6 90 -23 l82 -32
64 60 c35 33 80 65 99 72 l36 12 0 108 0 109 28 4 c60 10 64 6 102 -83z"/>
<path d="M1308 2574 c-68 -21 -151 -100 -177 -170 -89 -236 138 -462 374 -373
104 39 185 153 185 263 0 82 -27 144 -89 207 -84 84 -180 108 -293 73z"/>
<path d="M5964 2572 c-118 -41 -194 -147 -194 -272 0 -154 112 -275 266 -288
116 -9 226 54 281 162 22 42 27 64 27 126 0 62 -5 84 -27 126 -68 132 -216
193 -353 146z"/>
<path d="M2275 1354 c-184 -65 -224 -320 -69 -438 86 -66 189 -70 285 -13 73
44 112 107 117 193 6 83 -17 143 -73 199 -68 69 -169 91 -260 59z"/>
<path d="M4998 1360 c-150 -45 -223 -214 -153 -356 33 -67 84 -110 154 -130
209 -62 392 159 295 354 -54 109 -183 166 -296 132z"/>
<path d="M1733 4393 c-118 -325 -164 -631 -117 -779 15 -49 19 -54 46 -54 39
0 80 22 112 61 l27 32 597 -143 c328 -79 602 -145 607 -147 6 -2 31 -48 57
-101 55 -115 128 -200 228 -267 62 -41 70 -50 70 -78 0 -17 16 -295 35 -619
l36 -589 -96 -102 c-63 -68 -91 -104 -82 -108 6 -4 66 -19 132 -35 171 -39
444 -46 620 -16 66 12 147 29 179 39 l59 18 -109 100 c-60 55 -111 108 -112
119 -5 23 47 1171 54 1201 2 13 27 31 72 52 75 37 158 111 207 188 30 47 85
172 85 194 0 12 -57 -3 608 161 l574 141 45 -31 c51 -33 150 -73 163 -65 17
11 33 115 33 215 -1 169 -42 325 -135 523 -28 59 -56 106 -62 104 -17 -5 -103
-116 -122 -156 -9 -20 -18 -38 -20 -40 -2 -2 -288 -41 -634 -86 l-631 -81
-116 103 c-113 101 -117 103 -165 103 -67 0 -94 -16 -176 -107 l-70 -77 -83
70 c-46 39 -94 76 -106 82 -28 15 -104 15 -140 0 -44 -19 -148 -94 -176 -128
l-26 -30 -598 70 c-329 38 -614 72 -633 76 -33 5 -40 15 -115 139 -44 74 -82
135 -85 135 -3 0 -20 -39 -37 -87z m103 -180 c26 -43 48 -79 49 -81 1 -1 305
-38 675 -81 l672 -79 67 67 c65 66 137 111 179 111 19 0 151 -97 181 -134 10
-12 5 -15 -29 -21 -121 -20 -255 -128 -313 -252 -57 -123 -49 -293 20 -411 89
-151 279 -242 448 -214 282 47 454 334 355 594 -48 126 -152 227 -275 268 -36
12 -65 25 -65 29 0 4 33 42 73 84 50 53 79 77 95 77 16 0 64 -36 144 -107
l120 -107 646 83 c356 46 662 86 681 90 30 6 36 12 48 51 7 25 20 54 28 65 20
25 23 20 66 -90 51 -131 70 -220 76 -357 7 -149 6 -149 -75 -88 -29 22 -56 40
-61 40 -5 0 -283 -67 -618 -150 -334 -82 -617 -152 -629 -155 -15 -3 -23 -18
-33 -57 -39 -172 -175 -325 -319 -362 l-47 -12 -32 -669 -33 -669 72 -66 72
-65 -65 -13 c-118 -23 -351 -26 -478 -8 -63 10 -119 20 -124 23 -4 3 18 33 51
67 59 61 59 62 55 111 -5 67 -73 1225 -73 1256 -1 19 -13 31 -60 58 -131 75
-232 196 -271 323 -13 41 -27 69 -37 72 -10 3 -298 72 -642 155 -344 82 -637
152 -652 156 -24 6 -29 3 -41 -27 -8 -18 -21 -39 -30 -46 -14 -12 -17 -10 -23
13 -10 40 2 217 21 305 17 83 75 300 80 300 2 0 25 -35 51 -77z"/>
<path d="M2795 3863 c-55 -13 -83 -74 -60 -130 26 -61 97 -72 146 -24 49 50
37 121 -26 147 -19 8 -36 13 -37 13 -2 -1 -12 -3 -23 -6z"/>
<path d="M4589 3841 c-81 -81 17 -210 120 -157 90 47 53 186 -49 186 -33 0
-48 -6 -71 -29z"/>
<path d="M3667 2740 c-52 -41 -44 -136 14 -165 36 -19 63 -19 99 0 37 19 50
43 50 90 0 79 -100 125 -163 75z"/>
</g>
</svg>
