<svg id="Layer_1" data-name="Layer 1" xmlns="http://www.w3.org/2000/svg" xmlns:xlink="http://www.w3.org/1999/xlink" viewBox="0 0 597.6 656.75"><defs><style>.cls-1,.cls-2{fill:none;}.cls-10,.cls-11,.cls-12,.cls-2,.cls-5,.cls-6,.cls-7,.cls-8,.cls-9{stroke:#231f20;stroke-miterlimit:10;}.cls-2{stroke-width:5px;}.cls-3{clip-path:url(#clip-path);}.cls-4{fill:#231f20;}.cls-12,.cls-5{fill:#b9bcbb;}.cls-5,.cls-6,.cls-7,.cls-9{stroke-width:4px;}.cls-10,.cls-6{fill:#6c6f6e;}.cls-7{fill:#fff;}.cls-8{fill:#6b6d6d;}.cls-10,.cls-11,.cls-12,.cls-8{stroke-width:3px;}.cls-9{fill:#6b6e6d;}.cls-11{fill:#b8bdbb;}</style><clipPath id="clip-path" transform="translate(1.8 -1.57)"><rect class="cls-1" x="-1.8" y="1.57" width="597.6" height="656.75"/></clipPath></defs><path class="cls-2" d="M-834.12,611.52" transform="translate(1.8 -1.57)"/><g class="cls-3"><rect class="cls-4" width="597.6" height="656.75"/><polygon class="cls-5" points="204.15 205.38 293.47 295.74 382.71 205.38 293.47 238.86 204.15 205.38"/><polygon class="cls-4" points="228.63 221.58 293.43 266.22 357.51 221.58 293.47 247.14 228.63 221.58"/><path class="cls-6" d="M172.23,361.87h11L188,350.23s-12.24-59.4,48.24-100.08l-9.36-10.08S160.47,273.43,172.23,361.87Z" transform="translate(1.8 -1.57)"/><path class="cls-6" d="M412.19,361.87h-11l-4.68-11.64s12.24-59.4-48.24-100.08l9.36-10.08S424,273.43,412.19,361.87Z" transform="translate(1.8 -1.57)"/><path class="cls-7" d="M200.19,301s-10,26-5.28,37.14c0,0,3.24,0,5.28-4.8L260,347.71s2,12.48,16,19.44l3.6,60.24-7.44,7.92a75,75,0,0,0,39.6,0L303,427.39l2.88-60.24s13.44-1.92,17.52-19.92l57.48-14.16a17.55,17.55,0,0,0,7.8,4.56s4.56-13.44-6.72-34.32c0,0-4.08,4.08-4.8,8.16l-61.44,7.92-10.8-9.6s-3.6-1-5.76,1.2-6.24,7.2-6.24,7.2l-1.68.24-8.4-7s-2.4-2.4-7.2.24a27,27,0,0,0-7.92,7l-61.2-7.2Z" transform="translate(1.8 -1.57)"/><circle class="cls-8" cx="293.03" cy="338.5" r="19.44"/><circle class="cls-4" cx="250.72" cy="328.49" r="4.44"/><circle class="cls-4" cx="225.63" cy="324.3" r="3.12"/><circle class="cls-4" cx="336.94" cy="328.49" r="4.8"/><circle class="cls-4" cx="293.44" cy="380.51" r="4.8"/><circle class="cls-4" cx="361.83" cy="324.06" r="3.24"/><circle class="cls-4" cx="293.03" cy="406.31" r="3.24"/><path class="cls-9" d="M260.67,224.77c-1.52.65,30.6,12.24,30.6,12.24l30.06-12.24S293.79,210.55,260.67,224.77Z" transform="translate(1.8 -1.57)"/><path class="cls-10" d="M266.12,440.11l-7.16,4.5v10.08s28.3,8.46,63.24,0v-10.8l-7-5S291.63,446.77,266.12,440.11Z" transform="translate(1.8 -1.57)"/><path class="cls-11" d="M166.36,360.31l-8.64,4.31,5.58,9.54s-7.2,4.32-9,10.26l-9.72-2.35L142.05,392l9,2.7s-1.26,8.92.9,13.19l-8.46,5.35,5.58,10.44,8.1-5s4.86,5.94,9.18,7.75V438l8.82,2.08,4-10.44a24,24,0,0,0,13.5-1.62l5.93,10,9.55-6-4.6-8.64A17.56,17.56,0,0,0,211,413.05l10.08,2,2-10.39-8.82-2.22s1.08-8.46-2-14.4l7.74-4.86-4-8.82-9.72,3.78s-5-6.12-9.18-7l.18-11.6L189.4,358l-4.14,9.9a19.24,19.24,0,0,0-12.6,1.6Z" transform="translate(1.8 -1.57)"/><path class="cls-11" d="M416.73,360.31l8.64,4.32-5.58,9.54s7.2,4.32,9,10.26l9.72-2.36L441,392l-9,2.7s1.26,8.92-.9,13.19l8.46,5.35L434,423.67l-8.1-5s-4.86,5.94-9.18,7.74V438l-8.82,2.08-4-10.44a24,24,0,0,1-13.5-1.62l-5.94,10L375,432l4.6-8.64a17.56,17.56,0,0,1-7.48-10.26L362,415l-2-10.39,8.82-2.21s-1.08-8.46,2-14.4l-7.74-4.86,4-8.82,9.72,3.78s5-6.12,9.18-7l-.18-11.6,7.92-1.54,4.14,9.9a19.24,19.24,0,0,1,12.6,1.6Z" transform="translate(1.8 -1.57)"/><circle class="cls-4" cx="402.33" cy="397.44" r="13.55"/><path class="cls-11" d="M213.31,420.61l-7.54,3.77,4.87,8.33s-6.29,3.78-7.86,9l-8.49-2.05-2.2,8.66,7.86,2.35s-1.1,7.79.79,11.52l-7.39,4.68,4.87,9.11,7.08-4.4s4.24,5.19,8,6.76v10.14l7.71,1.81,3.45-9.12a20.94,20.94,0,0,0,11.79-1.41l5.19,8.72,8.33-5.27-4-7.54a15.33,15.33,0,0,0,6.53-9l8.8,1.73,1.73-9.08-7.7-1.93s.94-7.38-1.73-12.57l6.76-4.25-3.46-7.7-8.49,3.3s-4.4-5.34-8-6.13l.16-10.13-6.91-1.34-3.62,8.64a16.86,16.86,0,0,0-11,1.4Z" transform="translate(1.8 -1.57)"/><circle class="cls-4" cx="229.26" cy="452.84" r="11.83"/><path class="cls-12" d="M368.4,420.61l7.55,3.77-4.88,8.33s6.29,3.78,7.86,9l8.49-2.05,2.2,8.66-7.86,2.35s1.1,7.79-.78,11.52l7.39,4.68-4.88,9.11-7.07-4.4s-4.25,5.19-8,6.76v10.14l-7.7,1.81-3.46-9.12a20.94,20.94,0,0,1-11.79-1.41l-5.19,8.72-8.33-5.27,4-7.54a15.33,15.33,0,0,1-6.53-9l-8.81,1.73-1.73-9.08,7.71-1.93s-.95-7.38,1.72-12.57l-6.75-4.25,3.45-7.7,8.49,3.3s4.4-5.34,8-6.13l-.16-10.13,6.92-1.34,3.61,8.64a16.88,16.88,0,0,1,11,1.4Z" transform="translate(1.8 -1.57)"/><circle class="cls-4" cx="356.05" cy="452.84" r="11.83"/><circle class="cls-4" cx="184.35" cy="397.44" r="13.55"/></g></svg>